<svg width="115" height="115" viewBox="0 0 115 115" fill="none" xmlns="http://www.w3.org/2000/svg">
<path fill-rule="evenodd" clip-rule="evenodd" d="M57.5002 9.58325C31.0358 9.58325 9.5835 31.0355 9.5835 57.4999C9.5835 83.9643 31.0358 105.417 57.5002 105.417C83.9645 105.417 105.417 83.9643 105.417 57.4999C105.417 31.0355 83.9645 9.58325 57.5002 9.58325ZM40.7293 45.5208C40.7293 43.3184 41.1631 41.1376 42.0059 39.1028C42.8487 37.0681 44.0841 35.2193 45.6414 33.662C47.1987 32.1047 49.0475 30.8693 51.0822 30.0265C53.117 29.1837 55.2978 28.7499 57.5002 28.7499C59.7025 28.7499 61.8833 29.1837 63.9181 30.0265C65.9528 30.8693 67.8016 32.1047 69.3589 33.662C70.9162 35.2193 72.1516 37.0681 72.9944 39.1028C73.8372 41.1376 74.271 43.3184 74.271 45.5208C74.271 49.9687 72.5041 54.2344 69.3589 57.3795C66.2138 60.5247 61.9481 62.2916 57.5002 62.2916C53.0523 62.2916 48.7865 60.5247 45.6414 57.3795C42.4963 54.2344 40.7293 49.9687 40.7293 45.5208ZM87.4864 81.3816C83.8984 85.8922 79.3382 89.5345 74.1461 92.0368C68.9539 94.5392 63.2638 95.8369 57.5002 95.8333C51.7365 95.8369 46.0464 94.5392 40.8542 92.0368C35.6621 89.5345 31.102 85.8922 27.5139 81.3816C35.2812 75.8089 45.8804 71.8749 57.5002 71.8749C69.12 71.8749 79.7191 75.8089 87.4864 81.3816Z" fill="#2E8E14"/>
</svg>
