<svg width="93" height="93" viewBox="0 0 93 93" fill="none" xmlns="http://www.w3.org/2000/svg">
<rect width="93" height="93" rx="20" fill="#2E8E14"/>
<path d="M35.4653 28.416C37.9399 25.216 41.9719 23.616 47.5613 23.616C53.1506 23.616 57.1399 25.1947 59.5293 28.352C61.9613 31.5093 63.1772 36.5653 63.1772 43.52C63.1772 48.0427 62.6013 51.7333 61.4493 54.592C60.3399 57.408 58.5906 59.7333 56.2013 61.568V61.824L64.2653 62.528L63.5613 70.784H62.3453C59.2306 70.784 56.4359 70.0587 53.9613 68.608L47.1133 64.64C41.7799 64.64 37.8973 62.8907 35.4653 59.392C33.0333 55.8507 31.8173 50.6027 31.8173 43.648C31.8173 36.6933 33.0333 31.616 35.4653 28.416ZM52.1693 43.776C52.1693 39.8507 51.8493 37.2053 51.2093 35.84C50.6119 34.432 49.3533 33.728 47.4333 33.728C45.5559 33.728 44.3399 34.432 43.7853 35.84C43.2306 37.2053 42.9533 39.8293 42.9533 43.712V45.248C42.9533 49.3867 43.2519 52.1173 43.8493 53.44C44.4893 54.72 45.7479 55.36 47.6253 55.36C49.5453 55.36 50.7826 54.7413 51.3373 53.504C51.8919 52.2667 52.1693 49.7067 52.1693 45.824V43.776Z" fill="white"/>
<path d="M60 34.42L53.79 28.21L56.62 25.38L60 28.77L69.88 18.88L72.71 21.71L60 34.42Z" fill="#C82D2D"/>
</svg>
