<svg width="244" height="70" viewBox="0 0 244 70" fill="none" xmlns="http://www.w3.org/2000/svg">
<path d="M5.46525 17.416C7.93992 14.216 11.9719 12.616 17.5613 12.616C23.1506 12.616 27.1399 14.1947 29.5293 17.352C31.9613 20.5093 33.1772 25.5653 33.1772 32.52C33.1772 37.0427 32.6013 40.7333 31.4493 43.592C30.3399 46.408 28.5906 48.7333 26.2013 50.568V50.824L34.2653 51.528L33.5613 59.784H32.3453C29.2306 59.784 26.4359 59.0587 23.9613 57.608L17.1133 53.64C11.7799 53.64 7.89725 51.8907 5.46525 48.392C3.03325 44.8507 1.81725 39.6027 1.81725 32.648C1.81725 25.6933 3.03325 20.616 5.46525 17.416ZM22.1693 32.776C22.1693 28.8507 21.8493 26.2053 21.2093 24.84C20.6119 23.432 19.3533 22.728 17.4333 22.728C15.5559 22.728 14.3399 23.432 13.7853 24.84C13.2306 26.2053 12.9533 28.8293 12.9533 32.712V34.248C12.9533 38.3867 13.2519 41.1173 13.8493 42.44C14.4893 43.72 15.7479 44.36 17.6253 44.36C19.5453 44.36 20.7826 43.7413 21.3373 42.504C21.8919 41.2667 22.1693 38.7067 22.1693 34.824V32.776ZM57.4388 40.648H37.7908V32.072H57.4388V40.648ZM73.2033 33.544C73.2033 37.2987 73.5659 39.9867 74.2913 41.608C75.0593 43.1867 76.2966 43.976 78.0033 43.976C79.7099 43.976 82.1206 43.5707 85.2353 42.76L86.8993 51.784C83.5286 53.0213 80.1366 53.64 76.7233 53.64C71.6033 53.64 67.8699 51.9547 65.5233 48.584C63.2193 45.1707 62.0673 40.1147 62.0673 33.416C62.0673 26.6747 63.2833 21.5333 65.7153 17.992C68.1473 14.408 72.1153 12.616 77.6193 12.616C80.8619 12.616 83.9553 13.2987 86.8993 14.664L85.1713 24.584C81.8433 23.4747 79.5179 22.92 78.1953 22.92C76.3179 22.92 75.0166 23.752 74.2913 25.416C73.5659 27.0373 73.2033 29.7467 73.2033 33.544ZM99.6453 24.584C101.992 22.5787 104.531 21.576 107.261 21.576C109.992 21.576 111.912 22.2373 113.021 23.56C114.173 24.84 114.749 26.7813 114.749 29.384V53H103.869V33.032C103.869 31.9653 103.4 31.432 102.461 31.432C101.267 31.432 100.264 31.7307 99.4533 32.328V53H88.7013V11.976H99.3893V24.584H99.6453ZM131.376 30.728C130.267 30.728 129.542 31.112 129.2 31.88C128.859 32.6053 128.688 33.736 128.688 35.272H134.256V33.736C134.256 31.7307 133.296 30.728 131.376 30.728ZM131.632 21.576C136.027 21.576 139.163 22.6427 141.04 24.776C142.96 26.8667 143.92 29.8747 143.92 33.8C143.92 34.312 143.771 36.616 143.472 40.712H128.88C128.88 43.912 130.352 45.512 133.296 45.512C134.704 45.512 137.456 45.0213 141.552 44.04L142.448 51.976C138.864 53.0853 135.28 53.64 131.696 53.64C127.302 53.64 123.931 52.2107 121.584 49.352C119.238 46.4507 118.064 42.5253 118.064 37.576C118.064 26.9093 122.587 21.576 131.632 21.576ZM160.265 30.92C159.027 30.92 158.195 31.496 157.769 32.648C157.342 33.7573 157.129 35.5067 157.129 37.896C157.129 40.2853 157.321 42.0133 157.705 43.08C158.131 44.1467 158.985 44.68 160.265 44.68C161.587 44.68 163.294 44.4453 165.385 43.976L166.537 52.168C163.593 53.1493 160.969 53.64 158.665 53.64C154.611 53.64 151.539 52.2747 149.449 49.544C147.401 46.8133 146.377 42.9947 146.377 38.088C146.377 33.1813 147.443 29.2133 149.577 26.184C151.71 23.112 154.803 21.576 158.857 21.576C161.886 21.576 164.617 22.088 167.049 23.112L165.897 32.52C163.422 31.4533 161.545 30.92 160.265 30.92ZM195.383 53H183.543L179.639 41.224H179.383V53H168.951V11.976H179.511V34.568H179.767L184.439 22.344H195.639L189.175 37.64L195.383 53ZM210.064 30.728C208.954 30.728 208.229 31.112 207.888 31.88C207.546 32.6053 207.376 33.736 207.376 35.272H212.944V33.736C212.944 31.7307 211.984 30.728 210.064 30.728ZM210.32 21.576C214.714 21.576 217.85 22.6427 219.728 24.776C221.648 26.8667 222.608 29.8747 222.608 33.8C222.608 34.312 222.458 36.616 222.16 40.712H207.568C207.568 43.912 209.04 45.512 211.984 45.512C213.392 45.512 216.144 45.0213 220.24 44.04L221.136 51.976C217.552 53.0853 213.968 53.64 210.384 53.64C205.989 53.64 202.618 52.2107 200.272 49.352C197.925 46.4507 196.752 42.5253 196.752 37.576C196.752 26.9093 201.274 21.576 210.32 21.576ZM236.2 35.784V53H225.576V22.344H234.92L235.56 24.2H235.816C236.798 23.0907 237.779 22.3867 238.76 22.088C239.784 21.7467 241.427 21.576 243.688 21.576L243.24 31.816H240.296C238.632 31.816 237.523 32.072 236.968 32.584C236.456 33.096 236.2 34.1627 236.2 35.784Z" fill="#2E8E14"/>
</svg>
