<svg width="313" height="74" viewBox="0 0 313 74" fill="none" xmlns="http://www.w3.org/2000/svg">
<path d="M287 21.42L280.79 15.21L283.62 12.38L287 15.77L296.88 5.88L299.71 8.71L287 21.42Z" fill="#C82D2D"/>
<path d="M39.9653 17.416C42.4399 14.216 46.4719 12.616 52.0613 12.616C57.6506 12.616 61.6399 14.1947 64.0293 17.352C66.4613 20.5093 67.6772 25.5653 67.6772 32.52C67.6772 37.0427 67.1013 40.7333 65.9493 43.592C64.8399 46.408 63.0906 48.7333 60.7013 50.568V50.824L68.7653 51.528L68.0613 59.784H66.8453C63.7306 59.784 60.9359 59.0587 58.4613 57.608L51.6133 53.64C46.2799 53.64 42.3973 51.8907 39.9653 48.392C37.5333 44.8507 36.3173 39.6027 36.3173 32.648C36.3173 25.6933 37.5333 20.616 39.9653 17.416ZM56.6693 32.776C56.6693 28.8507 56.3493 26.2053 55.7093 24.84C55.1119 23.432 53.8533 22.728 51.9333 22.728C50.0559 22.728 48.8399 23.432 48.2853 24.84C47.7306 26.2053 47.4533 28.8293 47.4533 32.712V34.248C47.4533 38.3867 47.7519 41.1173 48.3493 42.44C48.9893 43.72 50.2479 44.36 52.1253 44.36C54.0453 44.36 55.2826 43.7413 55.8373 42.504C56.3919 41.2667 56.6693 38.7067 56.6693 34.824V32.776ZM91.9388 40.648H72.2908V32.072H91.9388V40.648ZM107.703 33.544C107.703 37.2987 108.066 39.9867 108.791 41.608C109.559 43.1867 110.797 43.976 112.503 43.976C114.21 43.976 116.621 43.5707 119.735 42.76L121.399 51.784C118.029 53.0213 114.637 53.64 111.223 53.64C106.103 53.64 102.37 51.9547 100.023 48.584C97.7193 45.1707 96.5673 40.1147 96.5673 33.416C96.5673 26.6747 97.7833 21.5333 100.215 17.992C102.647 14.408 106.615 12.616 112.119 12.616C115.362 12.616 118.455 13.2987 121.399 14.664L119.671 24.584C116.343 23.4747 114.018 22.92 112.695 22.92C110.818 22.92 109.517 23.752 108.791 25.416C108.066 27.0373 107.703 29.7467 107.703 33.544ZM134.145 24.584C136.492 22.5787 139.031 21.576 141.761 21.576C144.492 21.576 146.412 22.2373 147.521 23.56C148.673 24.84 149.249 26.7813 149.249 29.384V53H138.369V33.032C138.369 31.9653 137.9 31.432 136.961 31.432C135.767 31.432 134.764 31.7307 133.953 32.328V53H123.201V11.976H133.889V24.584H134.145ZM165.876 30.728C164.767 30.728 164.042 31.112 163.7 31.88C163.359 32.6053 163.188 33.736 163.188 35.272H168.756V33.736C168.756 31.7307 167.796 30.728 165.876 30.728ZM166.132 21.576C170.527 21.576 173.663 22.6427 175.54 24.776C177.46 26.8667 178.42 29.8747 178.42 33.8C178.42 34.312 178.271 36.616 177.972 40.712H163.38C163.38 43.912 164.852 45.512 167.796 45.512C169.204 45.512 171.956 45.0213 176.052 44.04L176.948 51.976C173.364 53.0853 169.78 53.64 166.196 53.64C161.802 53.64 158.431 52.2107 156.084 49.352C153.738 46.4507 152.564 42.5253 152.564 37.576C152.564 26.9093 157.087 21.576 166.132 21.576ZM194.765 30.92C193.527 30.92 192.695 31.496 192.269 32.648C191.842 33.7573 191.629 35.5067 191.629 37.896C191.629 40.2853 191.821 42.0133 192.205 43.08C192.631 44.1467 193.485 44.68 194.765 44.68C196.087 44.68 197.794 44.4453 199.885 43.976L201.037 52.168C198.093 53.1493 195.469 53.64 193.165 53.64C189.111 53.64 186.039 52.2747 183.949 49.544C181.901 46.8133 180.877 42.9947 180.877 38.088C180.877 33.1813 181.943 29.2133 184.077 26.184C186.21 23.112 189.303 21.576 193.357 21.576C196.386 21.576 199.117 22.088 201.549 23.112L200.397 32.52C197.922 31.4533 196.045 30.92 194.765 30.92ZM229.883 53H218.043L214.139 41.224H213.883V53H203.451V11.976H214.011V34.568H214.267L218.939 22.344H230.139L223.675 37.64L229.883 53ZM244.564 30.728C243.454 30.728 242.729 31.112 242.388 31.88C242.046 32.6053 241.876 33.736 241.876 35.272H247.444V33.736C247.444 31.7307 246.484 30.728 244.564 30.728ZM244.82 21.576C249.214 21.576 252.35 22.6427 254.228 24.776C256.148 26.8667 257.108 29.8747 257.108 33.8C257.108 34.312 256.958 36.616 256.66 40.712H242.068C242.068 43.912 243.54 45.512 246.484 45.512C247.892 45.512 250.644 45.0213 254.74 44.04L255.636 51.976C252.052 53.0853 248.468 53.64 244.884 53.64C240.489 53.64 237.118 52.2107 234.772 49.352C232.425 46.4507 231.252 42.5253 231.252 37.576C231.252 26.9093 235.774 21.576 244.82 21.576ZM270.7 35.784V53H260.076V22.344H269.42L270.06 24.2H270.316C271.298 23.0907 272.279 22.3867 273.26 22.088C274.284 21.7467 275.927 21.576 278.188 21.576L277.74 31.816H274.796C273.132 31.816 272.023 32.072 271.468 32.584C270.956 33.096 270.7 34.1627 270.7 35.784Z" fill="#2E8E14"/>
</svg>
